<?xml version="1.0" encoding="UTF-8" standalone="no" ?>
<!DOCTYPE svg PUBLIC "-//W3C//DTD SVG 1.1//EN" "http://www.w3.org/Graphics/SVG/1.1/DTD/svg11.dtd">
<svg xmlns="http://www.w3.org/2000/svg" xmlns:xlink="http://www.w3.org/1999/xlink" version="1.1" width="500" height="500" viewBox="0 0 500 500" xml:space="preserve">
<desc>Created with Fabric.js 4.5.0</desc>
<defs>
</defs>
<g transform="matrix(1 0 0 1 250 276.5)"  >
<polygon style="stroke: rgb(255,74,81); stroke-width: 1; stroke-dasharray: none; stroke-linecap: butt; stroke-dashoffset: 0; stroke-linejoin: miter; stroke-miterlimit: 4; fill: rgb(255,74,81); fill-rule: nonzero; opacity: 1;"  points="69,141.5 -71,102.5 -112,44.5 -153.88,15.5 -153.88,-141.5 153.88,-141.5 153.88,72.5 69,141.5 " />
</g>
<g transform="matrix(1 0 0 1 250 145.63)"  >
<g style=""   >
		<g transform="matrix(1 0 0 1 0 -13.35)"  >
<rect style="stroke: rgb(153,29,71); stroke-width: 1; stroke-dasharray: none; stroke-linecap: butt; stroke-dashoffset: 0; stroke-linejoin: miter; stroke-miterlimit: 4; fill: rgb(153,29,71); fill-rule: nonzero; opacity: 1;"  x="-181" y="-23.37" rx="0" ry="0" width="362" height="46.74" />
</g>
		<g transform="matrix(1 0 0 1 0 -37.13)"  >
<rect style="stroke: rgb(153,29,71); stroke-width: 1; stroke-dasharray: none; stroke-linecap: butt; stroke-dashoffset: 0; stroke-linejoin: miter; stroke-miterlimit: 4; fill: rgb(153,29,71); fill-rule: nonzero; opacity: 1;"  x="-138.69" y="-29.245" rx="0" ry="0" width="277.38" height="58.49" />
</g>
		<g transform="matrix(1 0 0 1 -151.62 29.38)"  >
<rect style="stroke: rgb(153,29,71); stroke-width: 1; stroke-dasharray: none; stroke-linecap: butt; stroke-dashoffset: 0; stroke-linejoin: miter; stroke-miterlimit: 4; fill: rgb(153,29,71); fill-rule: nonzero; opacity: 1;"  x="-29.385" y="-36.99" rx="0" ry="0" width="58.77" height="73.98" />
</g>
</g>
</g>
<g transform="matrix(1 0 0 1 305 242.15)"  >
<g style=""   >
		<g transform="matrix(1 0 0 1 -53.21 0)"  >
<path style="stroke: rgb(246,255,110); stroke-width: 1; stroke-dasharray: none; stroke-linecap: butt; stroke-dashoffset: 0; stroke-linejoin: miter; stroke-miterlimit: 4; fill: rgb(246,255,110); fill-rule: nonzero; opacity: 1;"  transform=" translate(-251.79, -222.15)" d="M 251.79 251.61 C 239.8736324004722 251.60999931348755 229.13081527667293 244.43121826844595 224.57155357181477 233.4215430019501 C 220.0122918669566 222.41186773545428 222.53459780035348 209.73981226578422 230.96217235760463 201.31509839236105 C 239.38974691485583 192.89038451893788 252.06265797942433 190.37238090544156 263.07078473786686 194.9353801424717 C 274.07891149630944 199.49837937950184 281.2540449312965 210.2436330869847 281.25 222.16000000000003 C 281.2279540559849 238.41954886040645 268.0495554079798 251.59347418911486 251.79 251.61 Z M 251.79 206.70000000000002 C 243.25167776761594 206.70000000000002 236.33 213.62167776761595 236.33 222.16000000000003 C 236.33 230.69832223238407 243.25167776761594 237.62 251.79 237.62 C 260.32832223238404 237.62000000000003 267.25 230.6983222323841 267.25 222.16000000000003 C 267.238981581985 213.62624591264017 260.3237540873599 206.71101841801502 251.79 206.7 Z" stroke-linecap="round" />
</g>
		<g transform="matrix(1 0 0 1 53.21 0)"  >
<path style="stroke: rgb(246,255,110); stroke-width: 1; stroke-dasharray: none; stroke-linecap: butt; stroke-dashoffset: 0; stroke-linejoin: miter; stroke-miterlimit: 4; fill: rgb(246,255,110); fill-rule: nonzero; opacity: 1;"  transform=" translate(-358.21, -222.15)" d="M 358.21 251.61 C 346.2936324004722 251.60999931348755 335.55081527667295 244.43121826844595 330.99155357181473 233.4215430019501 C 326.4322918669566 222.41186773545428 328.95459780035344 209.73981226578425 337.3821723576046 201.31509839236105 C 345.80974691485574 192.89038451893788 358.4826579794243 190.37238090544156 369.4907847378668 194.93538014247167 C 380.49891149630935 199.4983793795018 387.67404493129646 210.24363308698463 387.66999999999996 222.16 C 387.6479540559849 238.41954886040645 374.4695554079798 251.59347418911486 358.21 251.61 Z M 358.21 206.70000000000002 C 349.6716777676159 206.70000000000002 342.74999999999994 213.62167776761595 342.74999999999994 222.16 C 342.74999999999994 230.69832223238407 349.6716777676159 237.62 358.2099999999999 237.62 C 366.748322232384 237.62000000000003 373.66999999999996 230.6983222323841 373.66999999999996 222.16000000000003 C 373.65898158198496 213.62624591264017 366.74375408735983 206.71101841801504 358.21 206.7 Z" stroke-linecap="round" />
</g>
</g>
</g>
<g transform="matrix(1 0 0 1 287.5 320)"  >
<path style="stroke: rgb(246,255,110); stroke-width: 1; stroke-dasharray: none; stroke-linecap: butt; stroke-dashoffset: 0; stroke-linejoin: miter; stroke-miterlimit: 4; fill: rgb(246,255,110); fill-rule: nonzero; opacity: 1;"  transform=" translate(-287.5, -300)" d="M 316 320.75 L 259 320.75 C 247.54009144101104 320.75 238.25 311.45990855898896 238.25 300 C 238.25 288.54009144101104 247.54009144101104 279.25 259 279.25 L 316 279.25 C 327.45990855898896 279.25 336.75 288.54009144101104 336.75 300 C 336.75 311.45990855898896 327.45990855898896 320.75 316 320.75 Z M 259 293.75 C 255.54822031355755 293.75 252.75 296.5482203135575 252.75 300 C 252.75 303.4517796864425 255.54822031355755 306.25 259 306.25 L 316 306.25 C 319.4517796864425 306.25 322.25 303.4517796864425 322.25 300 C 322.25 296.5482203135575 319.4517796864425 293.75 316 293.75 Z" stroke-linecap="round" />
</g>
</svg>