<?xml version="1.0" encoding="UTF-8" standalone="no" ?>
<!DOCTYPE svg PUBLIC "-//W3C//DTD SVG 1.1//EN" "http://www.w3.org/Graphics/SVG/1.1/DTD/svg11.dtd">
<svg xmlns="http://www.w3.org/2000/svg" xmlns:xlink="http://www.w3.org/1999/xlink" version="1.1" width="500" height="500" viewBox="0 0 500 500" xml:space="preserve">
<desc>Created with Fabric.js 4.5.0</desc>
<defs>
</defs>
<g transform="matrix(1 0 0 1 250 276.5)"  >
<polygon style="stroke: rgb(244,209,158); stroke-width: 1; stroke-dasharray: none; stroke-linecap: butt; stroke-dashoffset: 0; stroke-linejoin: miter; stroke-miterlimit: 4; fill: rgb(244,209,158); fill-rule: nonzero; opacity: 1;"  points="69,141.5 -71,102.5 -112,44.5 -153.88,15.5 -153.88,-141.5 153.88,-141.5 153.88,72.5 69,141.5 " />
</g>
<g transform="matrix(1 0 0 1 254.5 160.8)"  >
<polygon style="stroke: rgb(53,44,33); stroke-width: 1; stroke-dasharray: none; stroke-linecap: butt; stroke-dashoffset: 0; stroke-linejoin: miter; stroke-miterlimit: 4; fill: rgb(53,44,33); fill-rule: nonzero; opacity: 1;"  points="-158.37,94.8 -95.5,94.8 -95.5,38.2 184.5,38.2 184.5,-94.8 -83.5,-94.8 -83.5,-47.8 -184.5,-47.8 -184.5,81.2 -158.37,94.8 " />
</g>
<g transform="matrix(1 0 0 1 305 250)"  >
<g style=""   >
		<g transform="matrix(1 0 0 1 -56.25 0)"  >
<path style="stroke: rgb(198,143,70); stroke-width: 1; stroke-dasharray: none; stroke-linecap: butt; stroke-dashoffset: 0; stroke-linejoin: miter; stroke-miterlimit: 4; fill: rgb(198,143,70); fill-rule: nonzero; opacity: 1;"  transform=" translate(-248.75, -230)" d="M 262.5 250.75 C 260.6434333110973 250.75013395342222 258.8628578714517 250.01272392286194 257.55 248.7 L 230.05 221.2 C 227.31619048833758 218.46619048833756 227.31619048833758 214.0338095116624 230.05 211.29999999999998 C 232.78380951166244 208.56619048833755 237.2161904883376 208.56619048833755 239.95000000000002 211.29999999999998 L 267.45000000000005 238.79999999999998 C 269.4521990949146 240.80199478456538 270.05118821416437 243.81299810934559 268.96763351732625 246.42885237746984 C 267.8840788204882 249.04470664559406 265.3313926416808 250.75020430297823 262.50000000000006 250.74999999999997 Z" stroke-linecap="round" />
</g>
		<g transform="matrix(1 0 0 1 -55.75 0)"  >
<path style="stroke: rgb(198,143,70); stroke-width: 1; stroke-dasharray: none; stroke-linecap: butt; stroke-dashoffset: 0; stroke-linejoin: miter; stroke-miterlimit: 4; fill: rgb(198,143,70); fill-rule: nonzero; opacity: 1;"  transform=" translate(-249.25, -230)" d="M 235.5 250.75 C 232.66860735831924 250.75020430297826 230.11592117951187 249.0447066455941 229.03236648267378 246.42885237746987 C 227.94881178583572 243.8129981093456 228.54780090508547 240.8019947845654 230.55 238.8 L 258.05 211.3 C 260.7838095116624 208.56619048833758 265.2161904883376 208.56619048833758 267.95 211.3 C 270.68380951166245 214.03380951166244 270.68380951166245 218.4661904883376 267.95 221.20000000000002 L 240.45 248.70000000000002 C 239.13714212854828 250.01272392286194 237.35656668890272 250.75013395342222 235.5 250.75 Z" stroke-linecap="round" />
</g>
		<g transform="matrix(1 0 0 1 55.75 0)"  >
<path style="stroke: rgb(198,143,70); stroke-width: 1; stroke-dasharray: none; stroke-linecap: butt; stroke-dashoffset: 0; stroke-linejoin: miter; stroke-miterlimit: 4; fill: rgb(198,143,70); fill-rule: nonzero; opacity: 1;"  transform=" translate(-360.75, -230)" d="M 374.5 250.75 C 372.6434333110973 250.75013395342222 370.8628578714517 250.01272392286194 369.55 248.7 L 342.05 221.2 C 339.31619048833755 218.46619048833756 339.31619048833755 214.0338095116624 342.05 211.3 C 344.7838095116624 208.56619048833755 349.2161904883376 208.56619048833755 351.95 211.29999999999998 L 379.45 238.79999999999998 C 381.45219909491453 240.80199478456538 382.0511882141643 243.81299810934559 380.9676335173262 246.42885237746984 C 379.8840788204881 249.04470664559406 377.33139264168074 250.75020430297823 374.5 250.74999999999997 Z" stroke-linecap="round" />
</g>
		<g transform="matrix(1 0 0 1 56.25 0)"  >
<path style="stroke: rgb(198,143,70); stroke-width: 1; stroke-dasharray: none; stroke-linecap: butt; stroke-dashoffset: 0; stroke-linejoin: miter; stroke-miterlimit: 4; fill: rgb(198,143,70); fill-rule: nonzero; opacity: 1;"  transform=" translate(-361.25, -230)" d="M 347.5 250.75 C 344.66860735831926 250.75020430297826 342.1159211795119 249.0447066455941 341.0323664826738 246.42885237746987 C 339.94881178583574 243.8129981093456 340.54780090508547 240.8019947845654 342.55 238.8 L 370.05 211.3 C 372.7838095116624 208.56619048833758 377.2161904883376 208.56619048833758 379.95 211.3 C 382.68380951166245 214.03380951166244 382.68380951166245 218.4661904883376 379.95 221.20000000000002 L 352.45 248.70000000000002 C 351.13714212854825 250.01272392286194 349.3565666889027 250.75013395342222 347.5 250.75 Z" stroke-linecap="round" />
</g>
</g>
</g>
<g transform="matrix(1 0 0 1 299.49 352.5)"  >
<path style="stroke: rgb(198,143,70); stroke-width: 1; stroke-dasharray: none; stroke-linecap: butt; stroke-dashoffset: 0; stroke-linejoin: miter; stroke-miterlimit: 4; fill: rgb(198,143,70); fill-rule: nonzero; opacity: 1;"  transform=" translate(-299.49, -332.5)" d="M 258 340 C 266.78 329.84 279.82 314 305 314 C 328 314 340 334 344 342 C 346 346 344 351 340 349 C 333.68 345.84 326 341 303 342 C 285.55 342.76 271.43 345.29 262 350 C 256 353 250.13 349.11 258 340 Z" stroke-linecap="round" />
</g>
</svg>