<?xml version="1.0" encoding="UTF-8" standalone="no" ?>
<!DOCTYPE svg PUBLIC "-//W3C//DTD SVG 1.1//EN" "http://www.w3.org/Graphics/SVG/1.1/DTD/svg11.dtd">
<svg xmlns="http://www.w3.org/2000/svg" xmlns:xlink="http://www.w3.org/1999/xlink" version="1.1" width="500" height="500" viewBox="0 0 500 500" xml:space="preserve">
<desc>Created with Fabric.js 4.5.0</desc>
<defs>
</defs>
<g transform="matrix(1 0 0 1 250 276.5)"  >
<polygon style="stroke: none; stroke-width: 1; stroke-dasharray: none; stroke-linecap: butt; stroke-dashoffset: 0; stroke-linejoin: miter; stroke-miterlimit: 4; fill: rgb(244,209,158); fill-rule: nonzero; opacity: 1;"  points="69,141.5 -71,102.5 -112,44.5 -153.88,15.5 -153.88,-141.5 153.88,-141.5 153.88,72.5 69,141.5 " />
</g>
<g transform="matrix(1 0 0 1 244.5 185.98)"  >
<g style=""   >
		<g transform="matrix(1 0 0 1 0 11.52)"  >
<polygon style="stroke: none; stroke-width: 1; stroke-dasharray: none; stroke-linecap: butt; stroke-dashoffset: 0; stroke-linejoin: miter; stroke-miterlimit: 4; fill: rgb(53,44,33); fill-rule: nonzero; opacity: 1;"  points="-108.5,51.02 -108.5,89.5 -173.5,89.5 -173.5,-45.69 -118.5,-89.5 173.5,-89.5 173.5,-28.5 -108.5,-28.5 -108.5,51.02 " />
</g>
		<g transform="matrix(1 0 0 1 25.5 -27.73)"  >
<polygon style="stroke: none; stroke-width: 1; stroke-dasharray: none; stroke-linecap: butt; stroke-dashoffset: 0; stroke-linejoin: miter; stroke-miterlimit: 4; fill: rgb(53,44,33); fill-rule: nonzero; opacity: 1;"  points="148,-19.77 148,29 147.78,28.84 135.7,37.75 110.58,37.75 98.5,28.84 86.42,37.75 61.32,37.75 49.23,28.84 37.15,37.75 12.05,37.75 -0.03,28.84 -12.12,37.75 -37.22,37.75 -49.31,28.84 -61.39,37.75 -86.49,37.75 -98.59,28.84 -110.67,37.75 -135.77,37.75 -147.86,28.84 -148,28.94 -148,-19.7 -147.87,-19.61 -123.24,-37.76 -98.61,-19.61 -73.97,-37.76 -49.32,-19.61 -24.7,-37.76 -0.07,-19.61 24.56,-37.76 49.21,-19.61 73.85,-37.76 98.49,-19.61 123.12,-37.76 147.77,-19.61 148,-19.77 " />
</g>
		<g transform="matrix(1 0 0 1 0 -72.24)"  >
<polygon style="stroke: none; stroke-width: 1; stroke-dasharray: none; stroke-linecap: butt; stroke-dashoffset: 0; stroke-linejoin: miter; stroke-miterlimit: 4; fill: rgb(53,44,33); fill-rule: nonzero; opacity: 1;"  points="173.5,-23.17 173.5,34 173.24,33.82 159.08,44.26 129.64,44.26 115.48,33.82 101.31,44.26 71.88,44.26 57.71,33.82 43.55,44.26 14.12,44.26 -0.04,33.82 -14.2,44.26 -43.63,44.26 -57.8,33.82 -71.97,44.26 -101.39,44.26 -115.58,33.82 -129.74,44.26 -159.17,44.26 -173.5,39.26 -173.5,33.93 -86.72,-44.26 -57.82,-22.98 -28.96,-44.26 -0.08,-22.98 28.8,-44.26 57.69,-22.98 86.57,-44.26 115.45,-22.98 144.33,-44.26 173.23,-22.98 173.5,-23.17 " />
</g>
		<g transform="matrix(1 0 0 1 -141 91.76)"  >
<polygon style="stroke: none; stroke-width: 1; stroke-dasharray: none; stroke-linecap: butt; stroke-dashoffset: 0; stroke-linejoin: miter; stroke-miterlimit: 4; fill: rgb(53,44,33); fill-rule: nonzero; opacity: 1;"  points="32.5,-13.09 32.5,19.15 32.18,18.91 24.27,24.74 7.81,24.74 -0.12,18.91 -8.03,24.74 -24.49,24.74 -32.41,18.91 -32.5,18.97 -32.5,-12.91 -32.42,-12.85 -16.27,-24.74 -0.13,-12.85 16.02,-24.74 32.17,-12.85 32.5,-13.09 " />
</g>
</g>
</g>
<g transform="matrix(1 0 0 1 314.41 245.76)"  >
<g style=""   >
		<g transform="matrix(1 0 0 1 -50.63 -0.16)"  >
<path style="stroke: none; stroke-width: 1; stroke-dasharray: none; stroke-linecap: butt; stroke-dashoffset: 0; stroke-linejoin: miter; stroke-miterlimit: 4; fill: rgb(198,143,70); fill-rule: nonzero; opacity: 1;"  transform=" translate(-263.79, -225.6)" d="M 266.11 195.38 L 274.23 210.6 C 274.7513401753222 211.59358018540695 275.7342402526395 212.26135199366072 276.85 212.38 L 294 214.32 C 295.2876946626837 214.4679413143438 296.3801801319233 215.33313655273102 296.8192165128719 216.5526820553661 C 297.25825289382055 217.7722275580012 296.9679211119621 219.1352370067837 296.07 220.07 L 284.07 232.48999999999998 C 283.30492911280567 233.28681630959653 282.9732388106987 234.40487350770974 283.18 235.48999999999998 L 286.63 252.39 C 286.8904531388917 253.6589595800263 286.40719131703116 254.96566376694534 285.38374037775594 255.7597937488726 C 284.3602894384807 256.55392373079985 282.9745009117682 256.69747852804335 281.81 256.13 L 266.3 248.59 C 265.29081233587647 248.10174750082487 264.1064071575314 248.13911044020483 263.13 248.69 L 248.13 257.19 C 247.00179951253998 257.82955142194544 245.6084757542112 257.77378373798666 244.5349983435506 257.0461103153452 C 243.46152093288995 256.3184368927037 242.89372787100933 255.04483092185646 243.07 253.76 L 245.45 236.68 C 245.61822387322266 235.56391362062098 245.21654741812782 234.4377179521307 244.38 233.68 L 231.66 222.03 C 230.70274379333117 221.15673765934358 230.32505560682654 219.81529918758295 230.6860667324624 218.5708726015676 C 231.04707785809825 217.32644601555222 232.0840205730792 216.39539534797686 233.35999999999999 216.17 L 250.35999999999999 213.17 C 251.46556374902136 212.9772048781294 252.40477790650894 212.2512783978402 252.86999999999998 211.23 L 260 195.58 C 260.5309765519804 194.39281297744722 261.6926560687004 193.6125213463826 262.9924786893974 193.56997396108974 C 264.29230131009433 193.52742657579688 265.50252234267737 194.23007825434746 266.11 195.38 Z" stroke-linecap="round" />
</g>
		<g transform="matrix(1 0 0 1 47.18 0)"  >
<path style="stroke: none; stroke-width: 1; stroke-dasharray: none; stroke-linecap: butt; stroke-dashoffset: 0; stroke-linejoin: miter; stroke-miterlimit: 4; fill: rgb(198,143,70); fill-rule: nonzero; opacity: 1;"  transform=" translate(-361.59, -225.76)" d="M 367 192.25 L 374.05 210 C 374.50968477192185 211.14982162499015 375.5034009584217 212.00157835627576 376.71000000000004 212.28 L 395.33000000000004 216.5 C 396.7323359917628 216.8152133370675 397.83342393109814 217.90038779618558 398.1690175793167 219.29798666028566 C 398.5046112275353 220.69558552438576 398.01631235890676 222.16240605593288 396.91 223.08 L 382.23 235.28 C 381.27774489578735 236.07395772006186 380.7767316693768 237.28536283466653 380.89000000000004 238.52 L 382.62000000000006 257.52 C 382.74824013687817 258.9469277384692 382.0565955631049 260.3232286175459 380.8350614171617 261.0718424257368 C 379.61352727121846 261.8204562339277 378.07323356810224 261.8119925280141 376.86000000000007 261.04999999999995 L 360.7100000000001 250.85999999999996 C 359.66374368437624 250.197684514408 358.358467956098 250.09296325254041 357.2200000000001 250.57999999999996 L 339.6700000000001 258.10999999999996 C 338.35171227662175 258.67504051890893 336.8269944472891 258.44309606526565 335.73636356741616 257.51160393245584 C 334.6457326875432 256.5801117996461 334.1781337949103 255.11044722421767 334.5300000000001 253.71999999999997 L 339.2300000000001 235.20999999999998 C 339.5377938530362 234.00767336408543 339.23077871585684 232.73093968386405 338.4100000000001 231.79999999999998 L 325.8400000000001 217.44 C 324.8907028942919 216.3640797684575 324.63649899159805 214.8416815782293 325.1847377110909 213.5157088613164 C 325.73297643058373 212.1897361444035 326.9880712437583 211.29137492323628 328.4200000000001 211.2 L 347.47 210 C 348.71053397608443 209.92185919750673 349.83282846539964 209.23725955902444 350.47 208.17 L 360.24 191.76999999999998 C 360.9620073345919 190.52244366920542 362.3321744434493 189.79576903195598 363.76997434325204 189.89786133253372 C 365.2077742430548 189.99995363311143 366.4615156262186 190.9129412993801 367 192.25 Z" stroke-linecap="round" />
</g>
</g>
</g>
<g transform="matrix(1 0 0 1 303.5 338.5)"  >
<path style="stroke: none; stroke-width: 1; stroke-dasharray: none; stroke-linecap: butt; stroke-dashoffset: 0; stroke-linejoin: miter; stroke-miterlimit: 4; fill: rgb(198,143,70); fill-rule: nonzero; opacity: 1;"  transform=" translate(-303.5, -318.5)" d="M 303.5 356 C 282.78932188134524 356 266 339.21067811865476 266 318.5 C 266 297.78932188134524 282.78932188134524 281 303.5 281 C 324.21067811865476 281 341 297.78932188134524 341 318.5 C 340.97795361349057 339.2015393296405 324.2015393296405 355.9779536134906 303.5 356 Z M 303.5 295 C 290.52130837897636 295 280 305.52130837897636 280 318.5 C 280 331.47869162102364 290.52130837897636 342 303.5 342 C 316.47869162102364 342 327 331.47869162102364 327 318.5 C 326.98897226683636 305.52587896100334 316.47412103899666 295.01102773316364 303.5 295 Z" stroke-linecap="round" />
</g>
</svg>